<svg xmlns="http://www.w3.org/2000/svg" viewBox="0 0 128 128"><path d="M112.799 106.1H15.201l1.5 1.5V47.252l-1.5 1.5h97.598l-1.5-1.5V107.6c0 1.935 3 1.935 3 0V47.252c0-.817-.682-1.5-1.5-1.5H15.201c-.818 0-1.5.683-1.5 1.5V107.6c0 .817.682 1.5 1.5 1.5h97.598c1.934 0 1.934-3 0-3z"/><path d="M112.799 62.269H15.201l1.5 1.5V47.252l-1.5 1.5h97.598l-1.5-1.5v16.517c0 1.935 3 1.935 3 0V47.252c0-.817-.682-1.5-1.5-1.5H15.201c-.818 0-1.5.683-1.5 1.5v16.517c0 .817.682 1.5 1.5 1.5h97.598c1.934 0 1.934-3 0-3z"/><path d="M44.8 62.269H28.668l1.295 2.257 8-16.517-1.295.743H52.8l-1.295-2.257-8 16.517c-.839 1.732 1.748 3.255 2.591 1.514l8-16.517c.484-1-.091-2.257-1.295-2.257H36.669c-.496 0-1.07.278-1.295.743l-8 16.517c-.484 1 .091 2.257 1.295 2.257h16.132c1.933 0 1.933-3-.001-3z"/><path d="M60.932 62.269H44.8l1.295 2.257 8-16.517-1.295.743h16.132l-1.296-2.257-8 16.517c-.839 1.732 1.748 3.255 2.591 1.514l8-16.517c.484-1-.091-2.257-1.295-2.257H52.8c-.496 0-1.07.278-1.295.743l-8 16.517c-.484 1 .091 2.257 1.295 2.257h16.132c1.934 0 1.934-3 0-3z"/><path d="M77.105 62.269H60.973l1.295 2.257 8-16.517-1.295.743h16.132l-1.295-2.257-8 16.517c-.839 1.732 1.748 3.255 2.591 1.514l8-16.517c.484-1-.091-2.257-1.295-2.257H68.974c-.496 0-1.07.278-1.295.743l-8 16.517c-.484 1 .091 2.257 1.295 2.257h16.132c1.934 0 1.934-3-.001-3zM111.299 31.535L37.687 41.922l-23.028 3.25 1.845 1.048-2.308-16.354-1.047 1.845 73.612-10.387 23.028-3.25-1.845-1.048 2.308 16.354c.269 1.909 3.16 1.094 2.893-.797a80471.07 80471.07 0 00-2.308-16.354c-.124-.881-1.123-1.15-1.845-1.048L35.38 25.568l-23.028 3.25c-.881.124-1.149 1.123-1.047 1.845l2.308 16.354c.124.881 1.123 1.15 1.845 1.048L89.07 37.678l23.028-3.25c1.907-.27 1.092-3.159-.799-2.893z"/><path d="M68.884 40.525l16.245-2.293c.935-.132 1.397-1.469.896-2.203L75.662 20.812c-.42-.617-.977-.791-1.694-.689l-16.245 2.292c-.935.132-1.397 1.469-.896 2.203l10.364 15.218c1.082 1.589 3.683.09 2.591-1.514L59.418 23.104l-.896 2.203 16.245-2.292-1.694-.689 10.363 15.217.896-2.203-16.245 2.293c-1.91.269-1.095 3.16.797 2.892z"/><path d="M52.639 42.817l16.245-2.292c.935-.132 1.397-1.469.896-2.203L59.416 23.104c-.42-.617-.977-.791-1.694-.689l-16.245 2.293c-.935.132-1.397 1.468-.896 2.203l10.363 15.217c1.082 1.589 3.683.09 2.591-1.514L43.172 25.397l-.896 2.203 16.245-2.293-1.694-.689 10.364 15.218.896-2.203-16.245 2.292c-1.91.269-1.095 3.159.797 2.892z"/><path d="M36.352 45.115l16.245-2.292c.935-.132 1.397-1.469.896-2.203L43.129 25.403c-.42-.617-.977-.791-1.694-.689L25.19 27.005c-.935.132-1.397 1.469-.896 2.203l10.364 15.218c1.082 1.589 3.683.09 2.591-1.514L26.885 27.694l-.896 2.203 16.245-2.291-1.694-.689 10.364 15.217.896-2.203-16.245 2.292c-1.909.269-1.095 3.159.797 2.892z"/><g><path d="M105 98.667H22.333l1.5 1.5V71.778l-1.5 1.5h82.666l-1.5-1.5v28.389c0 1.935 3 1.935 3 0V71.778c0-.817-.682-1.5-1.5-1.5H22.332c-.818 0-1.5.683-1.5 1.5v28.389c0 .817.682 1.5 1.5 1.5h82.666c1.936 0 1.936-3 .002-3z"/></g><g><path d="M31 83.269h52.201c1.935 0 1.935-3 0-3H31c-1.935 0-1.935 3 0 3z"/></g><g><path d="M31 92.833h34.667c1.935 0 1.935-3 0-3H31c-1.935 0-1.935 3 0 3z"/></g></svg>