<svg xmlns="http://www.w3.org/2000/svg" version="1.0" viewBox="0 0 24 24" fill="#ffffff">
    <circle cx="19" cy="5" r="2"/>
    <path d="M10.3 7.5S12.1 5 14.8 5c1.4 0 2.2.9 2.2 2.1 0 .2-.1 3.7-.1 3.7l-.8-2.3-2.5 1.5-3.3-2.5z"/>
    <path stroke="#fff" stroke-miterlimit="10" stroke-width="1.5" d="M14 9.4L5.1 3.8"/>
    <path d="M20.4 20c-1.4.7-3.4.3-4.8-.5L3.1 12.4l-1 1.7 12.5 7.1c.8.5 1.8.7 2.7.7.9 0 1.7-.2 2.5-.6l1.6-.9-1-.4z"/>
    <path stroke="#fff" stroke-miterlimit="10" stroke-width="2"
          d="M20.1 13.1l-3-1.9c-.7-.4-1.1-1.2-1.1-2.1V7.2M9.2 17.1l4.2-2.4c.8-.5.9-1.6.1-2.1-1.4-1-3.3-2.2-3.3-2.2"/>
    <path d="M13.8 11.7L9.2 8.5l-.4.4c-1 1-.7 2.6.5 3.2l4.3 2.1.2-2.5z"/>
</svg>